<svg xmlns="http://www.w3.org/2000/svg" xmlns:xlink="http://www.w3.org/1999/xlink" viewBox="0 0 1200 320" role="img" aria-labelledby="title desc">
  <title id="title">AI Agent Builder</title>
  <desc id="desc">Animated banner with DeepSeek, Qwen, and GLM tokens moving along a wave.</desc>
  <defs>
    <linearGradient id="bg" x1="0" y1="0" x2="1" y2="1">
      <stop offset="0%" stop-color="#020617"/>
      <stop offset="52%" stop-color="#1e3a8a"/>
      <stop offset="100%" stop-color="#7c3aed"/>
    </linearGradient>
    <radialGradient id="glow" cx="50%" cy="50%" r="50%">
      <stop offset="0%" stop-color="#60a5fa" stop-opacity="0.55"/>
      <stop offset="100%" stop-color="#60a5fa" stop-opacity="0"/>
    </radialGradient>
    <filter id="softShadow" x="-40%" y="-40%" width="180%" height="180%">
      <feDropShadow dx="0" dy="10" stdDeviation="10" flood-color="#020617" flood-opacity="0.35"/>
    </filter>
    <path id="tokenPath" d="M 120 235 C 260 178, 390 178, 535 235 S 810 292, 960 235 S 1120 178, 1260 235"/>
    <symbol id="qwenIcon" viewBox="0 0 24 24">
      <path d="M23.919 14.545 20.817 9.17l1.47-2.544a.56.56 0 0 0 0-.566l-1.633-2.83a.57.57 0 0 0-.49-.283h-6.207L12.487.402a.57.57 0 0 0-.49-.284H8.732a.56.56 0 0 0-.49.284L5.139 5.775h-2.94a.56.56 0 0 0-.49.284L.077 8.887a.56.56 0 0 0 0 .567L3.18 14.83l-1.47 2.545a.56.56 0 0 0 0 .566l1.634 2.83a.57.57 0 0 0 .49.283h6.205l1.47 2.545a.57.57 0 0 0 .49.284h3.266a.57.57 0 0 0 .49-.284l3.104-5.375h2.94a.57.57 0 0 0 .49-.283l1.634-2.828a.55.55 0 0 0-.004-.568M8.733.686l1.634 2.828-1.634 2.828H21.8L20.164 9.17H7.425L5.63 6.06Zm1.306 19.801-6.205-.002 1.634-2.83h3.265L2.201 6.344h3.267q3.182 5.517 6.367 11.032zm10.124-5.66L18.53 12l-6.532 11.315-1.634-2.83c2.129-3.673 4.25-7.351 6.373-11.028h3.592l3.102 5.374z"/>
    </symbol>
    <symbol id="deepseekIcon" viewBox="0 0 24 24">
      <path d="M23.748 4.651c-.254-.124-.364.113-.512.233-.051.04-.094.09-.137.137-.372.397-.806.657-1.373.626-.829-.046-1.537.214-2.163.848-.133-.782-.575-1.248-1.247-1.548-.352-.155-.708-.311-.955-.65-.172-.24-.219-.509-.305-.774-.055-.16-.11-.323-.293-.35-.2-.031-.278.136-.356.276-.313.572-.434 1.202-.422 1.84.027 1.436.633 2.58 1.838 3.393.137.094.172.187.129.323-.082.28-.18.553-.266.833-.055.179-.137.218-.328.14a5.5 5.5 0 0 1-1.737-1.179c-.857-.828-1.631-1.743-2.597-2.46a12 12 0 0 0-.689-.47c-.985-.957.13-1.743.387-1.836.27-.098.094-.433-.778-.428-.872.003-1.67.295-2.687.685a3 3 0 0 1-.465.136 9.6 9.6 0 0 0-2.883-.101c-1.885.21-3.39 1.1-4.497 2.622C.082 8.776-.231 10.854.152 13.02c.403 2.284 1.568 4.175 3.36 5.653 1.857 1.533 3.997 2.284 6.438 2.14 1.482-.085 3.132-.284 4.994-1.86.47.234.962.328 1.78.398.629.058 1.235-.031 1.705-.129.735-.155.684-.836.418-.961-2.155-1.004-1.682-.595-2.112-.926 1.095-1.295 2.768-3.598 3.284-6.733.05-.346.115-.834.108-1.114-.004-.171.035-.238.23-.257a4.2 4.2 0 0 0 1.545-.475c1.397-.763 1.96-2.016 2.093-3.517.02-.23-.004-.467-.247-.588M11.58 18.168c-2.088-1.642-3.101-2.183-3.52-2.16-.39.024-.32.472-.234.763.09.288.207.487.371.74.114.167.192.416-.113.603-.673.416-1.842-.14-1.897-.168-1.361-.801-2.5-1.86-3.301-3.306-.775-1.393-1.225-2.888-1.299-4.482-.02-.385.094-.522.477-.592a4.7 4.7 0 0 1 1.53-.038c2.131.311 3.946 1.264 5.467 2.774.868.86 1.525 1.887 2.202 2.89.72 1.066 1.494 2.082 2.48 2.915.348.291.626.513.892.677-.802.09-2.14.109-3.055-.615zm1.001-6.44a.306.306 0 0 1 .415-.287.3.3 0 0 1 .113.074.3.3 0 0 1 .086.214c0 .17-.136.307-.308.307a.303.303 0 0 1-.306-.307m3.11 1.596c-.2.081-.4.151-.591.16a1.25 1.25 0 0 1-.798-.254c-.274-.23-.47-.358-.551-.758a1.7 1.7 0 0 1 .015-.588c.07-.327-.007-.537-.238-.727-.188-.156-.426-.199-.689-.199a.6.6 0 0 1-.254-.078.253.253 0 0 1-.114-.358 1 1 0 0 1 .192-.21c.356-.202.767-.136 1.146.016.352.144.618.408 1.001.782.392.451.462.576.685.915.176.264.336.536.446.848.066.194-.02.353-.25.45"/>
    </symbol>
  </defs>

  <rect width="1200" height="320" rx="28" fill="url(#bg)"/>
  <circle cx="180" cy="70" r="110" fill="url(#glow)"/>
  <circle cx="980" cy="250" r="150" fill="url(#glow)" opacity="0.7"/>

  <g text-anchor="middle" font-family="Inter, Segoe UI, Arial, sans-serif">
    <text x="600" y="112" fill="#ffffff" font-size="54" font-weight="800" letter-spacing="1">AI Agent Builder</text>
    <text x="600" y="154" fill="#c7d2fe" font-size="20" font-weight="500">C++ / Python · AI Infra · Applied AI Systems</text>
    <text x="600" y="190" fill="#dbeafe" font-size="16" opacity="0.88">DeepSeek · Qwen · GLM</text>
  </g>

  <path d="M0 244 C 150 182, 300 182, 450 244 S 750 306, 900 244 S 1050 182, 1200 244 V320 H0 Z" fill="#0f172a" opacity="0.45"/>
  <path d="M0 252 C 150 190, 300 190, 450 252 S 750 314, 900 252 S 1050 190, 1200 252" fill="none" stroke="#93c5fd" stroke-width="2" opacity="0.55"/>

  <g filter="url(#softShadow)">
    <g>
      <animateMotion dur="18s" repeatCount="indefinite" begin="0s"><mpath href="#tokenPath" xlink:href="#tokenPath"/></animateMotion>
      <circle r="32" fill="#111827" stroke="#60a5fa" stroke-width="2"/>
      <use href="#deepseekIcon" xlink:href="#deepseekIcon" width="26" height="26" x="-13" y="-13" fill="#ffffff"/>
    </g>
    <g>
      <animateMotion dur="18s" repeatCount="indefinite" begin="-6s"><mpath href="#tokenPath" xlink:href="#tokenPath"/></animateMotion>
      <circle r="32" fill="#4c1d95" stroke="#c4b5fd" stroke-width="2"/>
      <use href="#qwenIcon" xlink:href="#qwenIcon" width="27" height="27" x="-13.5" y="-13.5" fill="#ffffff"/>
    </g>
    <g>
      <animateMotion dur="18s" repeatCount="indefinite" begin="-12s"><mpath href="#tokenPath" xlink:href="#tokenPath"/></animateMotion>
      <circle r="32" fill="#0f766e" stroke="#5eead4" stroke-width="2"/>
      <text text-anchor="middle" dominant-baseline="central" font-family="Inter, Segoe UI, Arial, sans-serif" font-size="15" font-weight="800" fill="#ffffff">GLM</text>
    </g>
  </g>
</svg>
